<?xml version="1.0" standalone="no"?>
<!DOCTYPE svg PUBLIC "-//W3C//DTD SVG 20010904//EN"
 "http://www.w3.org/TR/2001/REC-SVG-20010904/DTD/svg10.dtd">
<svg version="1.0" xmlns="http://www.w3.org/2000/svg"
 width="260.000000pt" height="260.000000pt" viewBox="0 0 260.000000 260.000000"
 preserveAspectRatio="xMidYMid meet">

<g transform="translate(0.000000,260.000000) scale(0.100000,-0.100000)"
fill="#000000" stroke="none">
<path d="M1130 2447 c-106 -32 -184 -79 -266 -162 -116 -117 -174 -259 -174
-425 0 -99 19 -190 55 -260 14 -27 25 -52 25 -55 0 -3 -19 -5 -42 -5 -88 -1
-225 -47 -303 -102 -61 -44 -141 -125 -176 -180 -43 -67 -86 -196 -94 -282
-24 -277 164 -555 430 -635 188 -57 456 -9 479 85 8 32 -15 71 -51 85 -20 7
-42 4 -98 -16 -120 -41 -260 -31 -361 26 -56 32 -72 36 -55 15 20 -24 124 -65
196 -76 80 -13 147 -6 222 22 65 24 101 21 121 -12 l16 -25 -24 21 c-30 24
-27 24 -114 -5 -94 -32 -198 -33 -286 -1 -68 24 -147 70 -142 83 2 5 -23 36
-54 70 -32 34 -71 91 -88 127 -29 61 -31 72 -31 186 0 119 0 121 38 196 21 43
54 94 75 116 47 49 130 105 182 121 81 25 108 29 179 25 82 -5 108 -13 246
-79 69 -33 204 -68 229 -59 20 7 41 -13 29 -28 -6 -7 -24 -47 -39 -88 l-29
-75 -1 -530 0 -530 6 520 c5 462 8 526 24 575 27 83 81 179 134 240 26 30 40
51 31 48 -45 -17 -149 -19 -209 -4 -71 18 -170 68 -197 99 -11 12 0 7 26 -11
97 -70 244 -98 358 -69 34 9 97 34 140 56 114 57 182 75 293 75 138 0 260 -42
373 -128 26 -20 47 -33 47 -28 -1 18 -133 104 -205 133 -65 26 -97 32 -180 36
-125 6 -202 -11 -328 -71 -123 -60 -170 -70 -278 -63 -73 5 -100 11 -151 37
-85 43 -141 91 -187 158 -48 72 -71 138 -78 227 -15 191 87 364 265 448 79 36
90 39 180 40 75 0 110 -4 154 -20 60 -22 139 -71 176 -110 12 -13 26 -22 31
-19 25 16 130 -174 131 -236 l0 -28 -370 0 c-409 0 -392 3 -384 -64 3 -31 -10
-25 -20 10 -4 14 1 30 15 47 l20 27 360 0 c412 0 377 -11 336 103 -23 62 -75
143 -85 132 -3 -3 2 -13 11 -22 25 -29 77 -146 77 -175 l0 -28 -354 0 -355 0
-21 -27 c-24 -31 -22 -74 7 -105 15 -17 43 -18 429 -18 371 0 414 2 429 17 31
30 36 63 24 142 -21 140 -74 248 -167 344 -55 55 -95 80 -56 35 l19 -23 -22
19 c-13 10 -20 22 -18 27 13 20 -142 99 -233 118 -85 18 -207 13 -292 -12z
m320 -12 c60 -16 143 -54 175 -80 11 -9 0 -5 -25 8 -200 110 -466 94 -647 -39
-243 -179 -306 -533 -142 -801 15 -24 17 -33 7 -25 -27 22 -88 156 -103 228
-60 282 85 566 347 682 41 18 98 33 178 46 39 7 149 -3 210 -19z m-666 -914
c3 -4 -25 -11 -62 -14 -37 -4 -92 -14 -122 -23 -30 -9 -55 -15 -55 -14 0 4
-54 -28 -107 -63 -107 -72 -199 -203 -233 -333 -22 -85 -20 -233 5 -323 24
-85 45 -129 95 -197 l36 -49 -36 40 c-44 49 -99 159 -120 240 -19 75 -19 202
0 283 25 107 95 228 165 288 14 12 36 32 50 44 35 31 96 65 158 90 82 31 215
50 226 31z m67 -58 c13 -16 12 -17 -3 -4 -10 7 -18 15 -18 17 0 8 8 3 21 -13z
m-396 -893 c10 -11 16 -20 13 -20 -3 0 -13 9 -23 20 -10 11 -16 20 -13 20 3 0
13 -9 23 -20z"/>
<path d="M1655 1479 c-206 -72 -347 -229 -390 -435 -27 -128 3 -325 66 -433
21 -36 21 -36 0 -11 -11 14 -34 57 -50 95 l-30 70 -1 -382 0 -383 60 0 60 0 0
255 c0 140 4 255 8 255 5 0 17 -10 28 -21 35 -40 121 -97 185 -125 252 -108
546 -33 717 183 45 57 41 117 -9 143 -35 19 -73 3 -113 -50 -103 -136 -303
-200 -479 -154 -56 14 -156 69 -171 93 -4 6 -12 11 -18 11 -26 0 41 -54 107
-86 109 -54 230 -64 350 -29 66 19 165 83 201 130 16 21 37 46 47 56 22 24 75
25 93 2 22 -29 16 -35 -14 -13 -35 26 -49 21 -96 -36 -144 -172 -373 -227
-561 -135 -60 30 -150 99 -141 108 3 3 -14 33 -38 67 -56 80 -77 134 -86 228
-39 369 347 626 669 445 40 -23 93 -64 117 -90 46 -51 98 -149 109 -204 l7
-33 -360 0 c-347 0 -360 -1 -377 -20 -20 -22 -24 -75 -7 -92 7 -7 9 1 5 29
-10 73 -11 73 399 73 l358 0 -6 28 c-14 58 -37 117 -60 154 -13 21 -22 38 -19
38 18 0 86 -143 98 -207 l7 -33 -368 0 c-202 0 -372 -4 -378 -8 -6 -4 -13 -28
-16 -54 -4 -35 -2 -48 9 -52 8 -3 198 -6 423 -6 l409 0 20 26 c25 32 27 80 6
179 -23 111 -124 292 -166 299 -8 1 -34 17 -59 35 -153 114 -375 150 -545 90z
m546 -246 c13 -16 12 -17 -3 -4 -17 13 -22 21 -14 21 2 0 10 -8 17 -17z m-826
-683 c10 -11 16 -20 13 -20 -3 0 -13 9 -23 20 -10 11 -16 20 -13 20 3 0 13 -9
23 -20z"/>
</g>
</svg>
